<svg width="39" height="40" viewBox="0 0 39 40" fill="none" xmlns="http://www.w3.org/2000/svg">
<path d="M19.5991 3.37561C20.2139 3.37561 20.7262 3.89692 20.7262 4.5225C20.7262 5.14808 20.2139 5.66939 19.5991 5.66939C18.9843 5.66939 18.472 5.14808 18.472 4.5225C18.3695 3.89692 18.9843 3.37561 19.5991 3.37561Z" fill="#CAB29A"/>
<path d="M34.2512 27.2518C34.8736 27.2518 35.3782 26.7383 35.3782 26.1049C35.3782 25.4715 34.8736 24.958 34.2512 24.958C33.6287 24.958 33.1241 25.4715 33.1241 26.1049C33.1241 26.7383 33.6287 27.2518 34.2512 27.2518Z" fill="#CAB29A"/>
<path d="M31.7921 29.0242C32.4068 29.0242 32.9191 29.5455 32.9191 30.1711C32.9191 30.7966 32.4068 31.318 31.7921 31.318C31.1773 31.318 30.665 30.7966 30.665 30.1711C30.665 29.5455 31.1773 29.0242 31.7921 29.0242Z" fill="#CAB29A"/>
<path d="M14.681 5.04382C15.2957 5.04382 15.808 5.56514 15.808 6.19071C15.808 6.81629 15.2957 7.3376 14.681 7.3376C14.0662 7.3376 13.5539 6.81629 13.5539 6.19071C13.5539 5.56514 14.0662 5.04382 14.681 5.04382Z" fill="#CAB29A"/>
<path d="M36.7102 20.2661C35.0708 18.5979 32.8167 17.6595 30.5625 17.6595C33.4314 12.7592 32.8167 6.19061 28.6157 2.02009L26.9764 0.351888C26.669 0.0390996 26.1567 -0.0651645 25.7468 0.0390984C25.337 0.143361 25.0296 0.560412 25.0296 0.977464L24.7222 5.04372C24.5173 7.85881 21.8533 10.0483 19.1893 9.31849C15.5007 8.27586 11.6071 9.94407 9.66038 13.3847C8.12346 16.1998 8.32839 19.6405 9.96777 22.3513L15.7056 15.5743C16.9351 14.1146 18.5745 13.2805 20.4188 13.2805C24.1074 13.072 27.3862 16.4084 27.1813 20.1618C27.0788 22.0386 26.2591 23.7068 24.8247 24.9579L18.0622 30.9009C18.5745 31.2137 19.0868 31.5265 19.5991 31.735C23.4927 33.4032 28.1034 31.4222 30.0502 27.2517C31.3822 24.4366 33.5339 23.0812 36.1979 22.1428C36.6077 22.0386 36.8127 21.7258 36.9151 21.3087C37.12 20.9959 36.9151 20.5789 36.7102 20.2661Z" fill="#CAB29A"/>
<path d="M15.7056 25.3751L17.345 28.6073L19.0868 27.1476L15.7056 25.3751Z" fill="#CAB29A"/>
<path d="M14.9883 20.0577L13.5539 21.7259L20.9311 25.4794L22.673 23.9155L14.9883 20.0577Z" fill="#CAB29A"/>
<path d="M12.3244 23.7068L12.1195 23.6025L1.56593 35.8013C0.746242 36.8439 0.848702 38.3036 1.66839 39.242C2.59055 40.1803 4.02501 40.2846 5.04962 39.3462L15.5007 30.1711L12.3244 23.7068Z" fill="#CAB29A"/>
<path d="M20.5213 15.6786C19.2918 15.6786 18.2672 16.3042 17.4475 17.2426L16.5253 18.2852L24.3124 22.2472C24.6198 21.6216 24.9272 20.996 24.9272 20.2662C25.0296 17.7639 22.8779 15.5744 20.5213 15.6786Z" fill="#CAB29A"/>
</svg>
