<svg width="12" height="22" viewBox="0 0 12 22" fill="none" xmlns="http://www.w3.org/2000/svg">
<path d="M7.12616 21.499V21.5H3.56015V21.4925V21.4814V21.4703V21.459V21.4476V21.4362V21.4246V21.4129V21.4011V21.3892V21.3771V21.365V21.3528V21.3405V21.328V21.3155V21.3028V21.2901V21.2772V21.2642V21.2512V21.238V21.2247V21.2114V21.1979V21.1843V21.1706V21.1568V21.143V21.129V21.1149V21.1007V21.0864V21.072V21.0575V21.043V21.0283V21.0135V20.9986V20.9837V20.9686V20.9534V20.9382V20.9228V20.9073V20.8918V20.8761V20.8604V20.8445V20.8286V20.8126V20.7965V20.7803V20.7639V20.7475V20.7311V20.7145V20.6978V20.681V20.6642V20.6472V20.6302V20.613V20.5958V20.5785V20.5611V20.5436V20.526V20.5084V20.4906V20.4728V20.4548V20.4368V20.4187V20.4005V20.3823V20.3639V20.3454V20.3269V20.3083V20.2896V20.2708V20.2519V20.233V20.2139V20.1948V20.1756V20.1563V20.1369V20.1175V20.0979V20.0783V20.0586V20.0389V20.019V19.9991V19.979V19.959V19.9388V19.9185V19.8982V19.8778V19.8573V19.8367V19.8161V19.7954V19.7746V19.7537V19.7327V19.7117V19.6906V19.6694V19.6482V19.6269V19.6055V19.584V19.5625V19.5408V19.5192V19.4974V19.4756V19.4537V19.4317V19.4096V19.3875V19.3653V19.3431V19.3207V19.2983V19.2759V19.2533V19.2307V19.208V19.1853V19.1625V19.1396V19.1166V19.0936V19.0706V19.0474V19.0242V19.0009V18.9776V18.9542V18.9307V18.9072V18.8836V18.8599V18.8362V18.8124V18.7885V18.7646V18.7406V18.7166V18.6925V18.6683V18.6441V18.6198V18.5955V18.5711V18.5466V18.5221V18.4975V18.4729V18.4482V18.4234V18.3986V18.3737V18.3488V18.3238V18.2988V18.2737V18.2485V18.2233V18.1981V18.1727V18.1474V18.1219V18.0965V18.0709V18.0453V18.0197V17.994V17.9683V17.9425V17.9166V17.8907V17.8648V17.8388V17.8127V17.7866V17.7604V17.7342V17.708V17.6817V17.6553V17.6289V17.6025V17.576V17.5495V17.5229V17.4962V17.4696V17.4428V17.4161V17.3892V17.3624V17.3355V17.3085V17.2815V17.2545V17.2274V17.2003V17.1731V17.1459V17.1186V17.0913V17.064V17.0366V17.0092V16.9817V16.9542V16.9267V16.8991V16.8715V16.8438V16.8161V16.7884V16.7606V16.7328V16.7049V16.677V16.6491V16.6211V16.5931V16.5651V16.537V16.5089V16.4808V16.4526V16.4244V16.3962V16.3679V16.3396V16.3112V16.2828V16.2544V16.226V16.1975V16.169V16.1405V16.1119V16.0833V16.0547V16.026V15.9973V15.9686V15.9399V15.9111V15.8823V15.8534V15.8246V15.7957V15.7668V15.7378V15.7089V15.6799V15.6508V15.6218V15.5927V15.5636V15.5345V15.5053V15.4762V15.447V15.4178V15.3885V15.3593V15.33V15.3007V15.2713V15.242V15.2126V15.1832V15.1538V15.1244V15.0949V15.0654V15.0359V15.0064V14.9769V14.9473V14.9178V14.8882V14.8586V14.8289V14.7993V14.7697V14.74V14.7103V14.6806V14.6509V14.6211V14.5914V14.5616V14.5319V14.5021V14.4723V14.4424V14.4126V14.3828V14.3529V14.3231V14.2932V14.2633V14.2334V14.2035V14.1736V14.1436V14.1137V14.0837V14.0538V14.0238V13.9938V13.9639V13.9339V13.9039V13.8739V13.8438V13.8138V13.7838V13.7538V13.7237V13.6937V13.6636V13.6336V13.6035V13.5735V13.5434V13.5134V13.4833V13.4532V13.4231V13.3931V13.363V13.3329V13.3028V13.2727V13.2427V13.2126V13.1825V13.1524V13.1223V13.0922V13.0622V13.0321V13.002V12.9719V12.9419V12.9118V12.8817V12.8517V12.8216V12.7916V12.7615V12.7315V12.7014V12.6714V12.6414V12.6114V12.5813V12.5513V12.5213V12.4913V12.4614V12.4314V12.4014V12.3714V12.3415V12.3116V12.2816V12.2517V12.2218V12.1919V12.162V12.1321V12.1022V12.0724V12.0425V12.0127V11.9829V11.9531V11.9233V11.8935V11.8637V11.834V11.8042V11.7745V11.7448V11.7151V11.6854V11.6558V11.6261V11.5965V11.5669V11.5373V11.5077V11.4782V11.4486V11.4191V11.3896V11.3601V11.3307V11.3012V11.2718V11.2424V11.213V11.1836V11.1543V11.125V11.0957V11.0664V11.0372V11.0079V10.5079H3.06015H1.38802V7.62471H3.06099H3.56099V7.12471V4.61119C3.56099 3.77757 3.76134 2.74186 4.36026 1.92796C4.9399 1.14024 5.93568 0.500254 7.66947 0.5C7.66982 0.5 7.67016 0.5 7.67051 0.5L10.5551 0.512127V3.28451H10.5548H10.5494H10.5439H10.5384H10.5329H10.5273H10.5218H10.5162H10.5106H10.505H10.4993H10.4937H10.488H10.4823H10.4766H10.4709H10.4652H10.4594H10.4536H10.4478H10.442H10.4362H10.4303H10.4245H10.4186H10.4127H10.4068H10.4009H10.3949H10.389H10.383H10.377H10.371H10.365H10.359H10.3529H10.3469H10.3408H10.3347H10.3286H10.3225H10.3163H10.3102H10.304H10.2979H10.2917H10.2855H10.2793H10.2731H10.2668H10.2606H10.2543H10.2481H10.2418H10.2355H10.2292H10.2229H10.2165H10.2102H10.2039H10.1975H10.1911H10.1848H10.1784H10.172H10.1656H10.1592H10.1527H10.1463H10.1399H10.1334H10.127H10.1205H10.114H10.1075H10.101H10.0945H10.088H10.0815H10.075H10.0685H10.0619H10.0554H10.0488H10.0423H10.0357H10.0292H10.0226H10.016H10.0094H10.0028H9.99623H9.98963H9.98302H9.97641H9.9698H9.96318H9.95656H9.94993H9.9433H9.93666H9.93003H9.92338H9.91674H9.91009H9.90344H9.89678H9.89013H9.88347H9.87681H9.87014H9.86348H9.85681H9.85014H9.84347H9.8368H9.83013H9.82346H9.81678H9.81011H9.80343H9.79676H9.79008H9.78341H9.77673H9.77006H9.76338H9.75671H9.75004H9.74337H9.7367H9.73003H9.72336H9.7167H9.71003H9.70337H9.69671H9.69006H9.6834H9.67675H9.6701H9.66346H9.65681H9.65018H9.64354H9.63691H9.63028H9.62366H9.61704H9.61042H9.60382H9.59721H9.59061H9.58401H9.57742H9.57084H9.56426H9.55769H9.55112H9.54456H9.538H9.53145H9.52491H9.51837H9.51185H9.50532H9.49881H9.4923H9.4858H9.47931H9.47283H9.46635H9.45988H9.45342H9.44697H9.44053H9.4341H9.42768H9.42126H9.41486H9.40846H9.40207H9.3957H9.38933H9.38297H9.37663H9.37029H9.36397H9.35766H9.35135H9.34506H9.33878H9.33251H9.32626H9.32001H9.31378H9.30756H9.30135H9.29516H9.28897H9.2828H9.27665H9.2705H9.26437H9.25826H9.25215H9.24606H9.23999H9.23393H9.22788H9.22185H9.21583H9.20983H9.20384H9.19787H9.19191H9.18597H9.18005H9.17414H9.16824H9.16236H9.1565H9.15066H9.14483H9.13902H9.13323H9.12745H9.12169H9.11595H9.11022H9.10452H9.09883H9.09316H9.08751H9.08187H9.07626H9.07066H9.06509H9.05953H9.05399H9.04847H9.04297H9.03749H9.03203H9.0266H9.02118H9.01578H9.0104H9.00504H8.99971H8.99439H8.9891H8.98383H8.97858H8.97335H8.96815H8.96296H8.9578H8.95266H8.94755H8.94245H8.93738H8.93233H8.92731H8.92231H8.91733H8.91238H8.90745H8.90255H8.89767H8.89281H8.88798H8.88317H8.87839H8.87363H8.8689H8.8642H8.85952H8.85486H8.85024H8.84563H8.84106H8.83651H8.83199H8.82749H8.82302H8.81858H8.81417H8.80978H8.80542H8.80109H8.79679H8.79251H8.78827H8.78405H8.77986H8.7757H8.77157H8.76747H8.76339H8.75935H8.75534H8.75135H8.7474H8.74347H8.73958H8.73572H8.73188H8.72808H8.72431H8.72057H8.71686H8.71319H8.70954H8.70593H8.70235H8.6988H8.69528H8.6918H8.68834H8.68492H8.68154H8.67819H8.67487H8.67158H8.66833H8.66511H8.66192H8.65877H8.65566H8.65258H8.64953H8.64652H8.64354H8.6406H8.63769H8.63482H8.63198H8.62918H8.62642H8.62369H8.621H8.61834H8.61572H8.61314H8.6106H8.60809H8.60562H8.60319H8.60079H8.59843C8.32671 3.28451 7.9573 3.35068 7.6465 3.60459C7.31658 3.87412 7.12783 4.29323 7.12783 4.84296V7.12555V7.62567L7.62795 7.62555L10.5577 7.62484L10.2601 10.5079H7.62616H7.12616V11.0079V11.0368V11.0657V11.0947V11.1236V11.1526V11.1816V11.2106V11.2397V11.2688V11.2979V11.327V11.3561V11.3853V11.4145V11.4437V11.4729V11.5022V11.5315V11.5608V11.5901V11.6194V11.6488V11.6781V11.7075V11.7369V11.7664V11.7958V11.8253V11.8547V11.8842V11.9138V11.9433V11.9728V12.0024V12.032V12.0615V12.0912V12.1208V12.1504V12.18V12.2097V12.2394V12.2691V12.2988V12.3285V12.3582V12.3879V12.4177V12.4474V12.4772V12.5069V12.5367V12.5665V12.5963V12.6261V12.6559V12.6858V12.7156V12.7454V12.7753V12.8051V12.835V12.8649V12.8947V12.9246V12.9545V12.9844V13.0143V13.0442V13.0741V13.104V13.1339V13.1638V13.1937V13.2236V13.2536V13.2835V13.3134V13.3433V13.3732V13.4032V13.4331V13.463V13.4929V13.5228V13.5528V13.5827V13.6126V13.6425V13.6724V13.7023V13.7322V13.7621V13.792V13.8219V13.8518V13.8817V13.9116V13.9414V13.9713V14.0012V14.031V14.0609V14.0907V14.1205V14.1504V14.1802V14.21V14.2398V14.2696V14.2993V14.3291V14.3589V14.3886V14.4184V14.4481V14.4778V14.5075V14.5372V14.5669V14.5966V14.6262V14.6559V14.6855V14.7151V14.7447V14.7743V14.8039V14.8334V14.863V14.8925V14.922V14.9515V14.981V15.0104V15.0399V15.0693V15.0987V15.1281V15.1575V15.1868V15.2162V15.2455V15.2748V15.304V15.3333V15.3625V15.3917V15.4209V15.4501V15.4792V15.5083V15.5374V15.5665V15.5956V15.6246V15.6536V15.6826V15.7115V15.7404V15.7693V15.7982V15.8271V15.8559V15.8847V15.9135V15.9422V15.9709V15.9996V16.0283V16.0569V16.0855V16.1141V16.1426V16.1711V16.1996V16.2281V16.2565V16.2849V16.3132V16.3415V16.3698V16.3981V16.4263V16.4545V16.4827V16.5108V16.5389V16.567V16.595V16.623V16.6509V16.6788V16.7067V16.7346V16.7624V16.7902V16.8179V16.8456V16.8732V16.9009V16.9284V16.956V16.9835V17.0109V17.0384V17.0658V17.0931V17.1204V17.1477V17.1749V17.2021V17.2292V17.2563V17.2833V17.3103V17.3373V17.3642V17.3911V17.4179V17.4447V17.4714V17.4981V17.5248V17.5514V17.5779V17.6045V17.6309V17.6573V17.6837V17.71V17.7363V17.7625V17.7887V17.8148V17.8409V17.8669V17.8929V17.9188V17.9447V17.9705V17.9963V18.022V18.0477V18.0733V18.0988V18.1243V18.1498V18.1752V18.2005V18.2258V18.2511V18.2763V18.3014V18.3264V18.3515V18.3764V18.4013V18.4262V18.451V18.4757V18.5004V18.525V18.5495V18.574V18.5985V18.6228V18.6471V18.6714V18.6956V18.7197V18.7438V18.7678V18.7918V18.8157V18.8395V18.8633V18.887V18.9106V18.9342V18.9577V18.9811V19.0045V19.0278V19.0511V19.0742V19.0974V19.1204V19.1434V19.1663V19.1892V19.2119V19.2347V19.2573V19.2799V19.3024V19.3248V19.3472V19.3695V19.3917V19.4139V19.436V19.458V19.4799V19.5018V19.5236V19.5453V19.567V19.5886V19.6101V19.6315V19.6529V19.6742V19.6954V19.7165V19.7376V19.7586V19.7795V19.8003V19.8211V19.8417V19.8623V19.8829V19.9033V19.9237V19.944V19.9642V19.9843V20.0044V20.0243V20.0442V20.064V20.0838V20.1034V20.123V20.1425V20.1619V20.1812V20.2004V20.2196V20.2387V20.2577V20.2766V20.2954V20.3141V20.3328V20.3513V20.3698V20.3882V20.4065V20.4247V20.4429V20.4609V20.4789V20.4968V20.5145V20.5322V20.5498V20.5674V20.5848V20.6021V20.6194V20.6365V20.6536V20.6706V20.6874V20.7042V20.7209V20.7375V20.754V20.7705V20.7868V20.803V20.8192V20.8352V20.8512V20.867V20.8828V20.8984V20.914V20.9295V20.9448V20.9601V20.9753V20.9904V21.0054V21.0203V21.035V21.0497V21.0643V21.0788V21.0932V21.1075V21.1217V21.1358V21.1498V21.1636V21.1774V21.1911V21.2047V21.2182V21.2315V21.2448V21.258V21.271V21.284V21.2969V21.3096V21.3222V21.3348V21.3472V21.3595V21.3718V21.3839V21.3959V21.4078V21.4196V21.4312V21.4428V21.4543V21.4656V21.4769V21.488V21.499Z" fill="white" stroke="white"/>
</svg>
